<svg width="84" height="84" viewBox="0 0 84 84" fill="none" xmlns="http://www.w3.org/2000/svg">
<rect width="84" height="84" rx="42" fill="#F0F5F5"/>
<path d="M62.6021 39.2083C61.3416 39.2083 60.3104 40.2395 60.3104 41.4999C60.3104 51.5833 52.1062 59.8103 42 59.8103C31.8937 59.8103 23.6895 51.6062 23.6895 41.4999C23.6895 31.3937 31.8937 23.1895 42 23.1895C43.2604 23.1895 44.2916 22.1583 44.2916 20.8979C44.2916 19.6375 43.2604 18.6062 42 18.6062C29.3729 18.6062 19.1062 28.8728 19.1062 41.4999C19.1062 54.127 29.3729 64.3937 42 64.3937C54.627 64.3937 64.8937 54.127 64.8937 41.4999C64.8937 40.2395 63.8625 39.2083 62.6021 39.2083Z" fill="#428594"/>
<path d="M34.4604 37.6038C33.5667 36.7101 32.1229 36.7101 31.2292 37.6038C30.3354 38.4976 30.3354 39.9414 31.2292 40.8352L38.7 48.2831C39.525 49.1081 40.6479 49.5892 41.8166 49.5892C41.9083 49.5892 42 49.5892 42.0916 49.5892C43.352 49.5205 44.5208 48.9017 45.3 47.8934L59.852 29.1707C60.6312 28.1623 60.4479 26.7414 59.4625 25.9623C58.4541 25.1831 57.0333 25.3665 56.2541 26.352L41.8166 44.9373L34.4833 37.6038H34.4604Z" fill="#428594"/>
</svg>
