<svg width="24" height="24" viewBox="0 0 24 24" fill="none" xmlns="http://www.w3.org/2000/svg">
<path fill-rule="evenodd" clip-rule="evenodd" d="M12 2.75C9.61075 2.74854 7.31361 3.67164 5.58972 5.32594C3.86583 6.98024 2.84891 9.23742 2.75197 11.6247C2.65504 14.012 3.48559 16.3442 5.06968 18.1328C6.65376 19.9214 8.8685 21.0277 11.25 21.22C11.252 18.963 11.284 17.587 11.685 16.44C12.0696 15.3412 12.6967 14.3431 13.5199 13.5199C14.3431 12.6967 15.3412 12.0696 16.44 11.685C17.587 11.284 18.963 11.252 21.22 11.25C21.0316 8.93415 19.9786 6.77402 18.2703 5.19911C16.5619 3.6242 14.3235 2.74989 12 2.75ZM21.04 12.751C18.852 12.757 17.791 12.801 16.936 13.101C16.0498 13.4111 15.2448 13.9169 14.5808 14.5808C13.9169 15.2448 13.4111 16.0498 13.101 16.936C12.801 17.791 12.757 18.852 12.751 21.04C12.901 20.955 13.045 20.845 13.178 20.712L20.712 13.178C20.845 13.045 20.955 12.901 21.04 12.751ZM1.25 12C1.25 6.063 6.063 1.25 12 1.25C17.937 1.25 22.75 6.063 22.75 12C22.75 12.884 22.342 13.669 21.773 14.239L14.239 21.773C13.669 22.343 12.884 22.75 12 22.75C6.063 22.75 1.25 17.937 1.25 12Z" fill="#F0F5F5"/>
</svg>
