<svg width="40" height="40" viewBox="0 0 40 40" fill="none" xmlns="http://www.w3.org/2000/svg">
<rect width="40" height="40" rx="20" fill="white"/>
<path d="M9 20.8619C11.4988 25.1457 14.8615 28.5492 19.1191 31H10.2984C9.58117 31 9 30.4184 9 29.7014V20.8619ZM9 10.2946C9 9.57942 9.57933 9.00009 10.294 9.00009H14.7015L31 25.2792V29.6551C31 30.0118 30.8585 30.3537 30.6063 30.6061C30.3541 30.8581 30.0122 30.9998 29.6557 30.9999H25.2795L9 14.7207M20.8831 9H29.6998C30.0447 9.00007 30.3754 9.13715 30.6192 9.38108C30.8631 9.62502 31 9.95583 31 10.3008V19.1255C28.4927 14.9517 25.1477 11.5421 20.8831 9Z" fill="#060923"/>
</svg>
